# xmcd
#
# Track frame offsets: 
#        150
#        17925
#        35342
#        46652
#        68877
#        81417
#        100712
#        120567
#
# Disc length: 1995 seconds
#
# Revision: 3
# Processed by: cddbd v1.5.2PL0 Copyright (c) Steve Scherf et al.
# Submitted via: ExactAudioCopyFreeDBPlugin 1.0
#
DISCID=5e07c908
DTITLE=The Marshall Tucker Band - Searchin' For A Rainbow
DYEAR=1975
DGENRE=Southern Rock
TTITLE0=Fire On The Mountain
TTITLE1=Searchin' For A Rainbow
TTITLE2=Walkin' And Talkin'
TTITLE3=Virginia
TTITLE4=Bob Away My Blues
TTITLE5=Keeps Me From All Wrong
TTITLE6=Bound And Determined
TTITLE7=Can't You See
EXTD=
EXTT0=
EXTT1=
EXTT2=
EXTT3=
EXTT4=
EXTT5=
EXTT6=
EXTT7=
PLAYORDER=
